<svg class="w-24 h-24 text-white" viewBox="0 0 64 64" fill="none" xmlns="http://www.w3.org/2000/svg">
                <g filter="url(#filter0_d_101_2)">
                    <!-- Trunk of the tree -->
                    <path d="M32 54V40" stroke="currentColor" stroke-width="4" stroke-linecap="round"/>

                    <!-- Branching paths -->
                    <path d="M32 40C22 40 22 24 22 24M32 40C42 40 42 24 42 24" stroke="currentColor" stroke-width="4" stroke-linecap="round"/>
                    <path d="M22 24C17 24 17 10 17 10M22 24C27 24 27 10 27 10" stroke="currentColor" stroke-width="4" stroke-linecap="round"/>
                    <path d="M42 24C37 24 37 10 37 10M42 24C47 24 47 10 47 10" stroke="currentColor" stroke-width="4" stroke-linecap="round"/>

                    <!-- Decision Nodes (Circles) -->
                    <circle cx="32" cy="40" r="4" fill="currentColor"/>
                    <circle cx="22" cy="24" r="4" fill="currentColor"/>
                    <circle cx="42" cy="24" r="4" fill="currentColor"/>

                    <!-- Leaf/End Nodes -->
                    <circle cx="17" cy="10" r="3" fill="currentColor"/>
                    <circle cx="27" cy="10" r="3" fill="currentColor"/>
                    <circle cx="37" cy="10" r="3" fill="currentColor"/>
                    <circle cx="47" cy="10" r="3" fill="currentColor"/>
                </g>
                <defs>
                    <filter id="filter0_d_101_2" x="0" y="0" width="64" height="64" filterUnits="userSpaceOnUse" color-interpolation-filters="sRGB">
                        <feFlood flood-opacity="0" result="BackgroundImageFix"/>
                        <feColorMatrix in="SourceAlpha" type="matrix" values="0 0 0 0 0 0 0 0 0 0 0 0 0 0 0 0 0 0 127 0" result="hardAlpha"/>
                        <feOffset dy="1"/>
                        <feGaussianBlur stdDeviation="1.5"/>
                        <feColorMatrix type="matrix" values="0 0 0 0 0 0 0 0 0 0 0 0 0 0 0 0 0 0 0.1 0"/>
                        <feBlend mode="normal" in2="BackgroundImageFix" result="effect1_dropShadow_101_2"/>
                        <feBlend mode="normal" in="SourceGraphic" in2="effect1_dropShadow_101_2" result="shape"/>
                    </filter>
                </defs>
            </svg>